<svg width="200" height="150" viewBox="0 0 200 150" xmlns="http://www.w3.org/2000/svg">
  <path d="M100,20 C130,20 160,50 160,80 C160,110 130,130 100,130 C70,130 40,110 40,80 C40,50 70,20 100,20 Z" stroke="#a5b4fc" stroke-width="2" fill="none"/>
  <path d="M100,50 C110,60 120,70 120,80 C120,90 110,100 100,100 C90,100 80,90 80,80 C80,70 90,60 100,50 Z" stroke="#a5b4fc" stroke-width="2" fill="none"/>
  <path d="M50,80 L70,80" stroke="#a5b4fc" stroke-width="2" fill="none"/>
  <path d="M130,80 L150,80" stroke="#a5b4fc" stroke-width="2" fill="none"/>
  <path d="M100,30 L100,50" stroke="#a5b4fc" stroke-width="2" fill="none"/>
  <path d="M100,100 L100,120" stroke="#a5b4fc" stroke-width="2" fill="none"/>
  <path d="M70,50 L85,65" stroke="#a5b4fc" stroke-width="2" fill="none"/>
  <path d="M130,50 L115,65" stroke="#a5b4fc" stroke-width="2" fill="none"/>
  <path d="M70,110 L85,95" stroke="#a5b4fc" stroke-width="2" fill="none"/>
  <path d="M130,110 L115,95" stroke="#a5b4fc" stroke-width="2" fill="none"/>
  <circle cx="50" cy="80" r="10" fill="#a5b4fc"/>
  <circle cx="150" cy="80" r="10" fill="#a5b4fc"/>
  <circle cx="100" cy="30" r="10" fill="#a5b4fc"/>
  <circle cx="100" cy="120" r="10" fill="#a5b4fc"/>
</svg>
